<?xml version="1.0" encoding="utf-8"?>
<!-- Generator: Adobe Illustrator 28.0.0, SVG Export Plug-In . SVG Version: 6.00 Build 0)  -->
<svg version="1.1" id="Calque_1" xmlns="http://www.w3.org/2000/svg" xmlns:xlink="http://www.w3.org/1999/xlink" x="0px" y="0px"
	 viewBox="0 0 512 512" style="enable-background:new 0 0 512 512;" xml:space="preserve">
<style type="text/css">
	.st0{filter:url(#Adobe_OpacityMaskFilter);}
	.st1{fill:#FFFFFF;stroke:#000000;stroke-width:20;stroke-miterlimit:10;}
	.st2{mask:url(#SVGID_1_);}
	.st3{fill:#FFFFFF;stroke:#1D1D1B;stroke-width:20;stroke-miterlimit:10;}
</style>
<defs>
	<filter id="Adobe_OpacityMaskFilter" filterUnits="userSpaceOnUse" x="30.7" y="30.7" width="450.7" height="450.7">
		<feColorMatrix  type="matrix" values="1 0 0 0 0  0 1 0 0 0  0 0 1 0 0  0 0 0 1 0"/>
	</filter>
</defs>
<mask maskUnits="userSpaceOnUse" x="30.7" y="30.7" width="450.7" height="450.7" id="SVGID_1_">
	<g class="st0">
		<g>
			<g>
				<g>
					<rect x="184.2" y="40.7" class="st1" width="143.6" height="143.6"/>
					<path class="st1" d="M70.7,40.7h113.6v143.6H40.7V70.7C40.7,54.1,54.1,40.7,70.7,40.7z"/>
					<path class="st1" d="M327.8,40.7h113.6c16.6,0,30,13.4,30,30v113.6H327.8V40.7z"/>
					<rect x="40.7" y="184.2" class="st1" width="143.6" height="143.6"/>
					<rect x="184.2" y="184.2" class="st1" width="143.6" height="143.6"/>
					<rect x="327.8" y="184.2" class="st1" width="143.6" height="143.6"/>
					<path class="st1" d="M40.7,327.8h143.6v143.6H70.7c-16.6,0-30-13.4-30-30V327.8z"/>
					<rect x="184.2" y="327.8" class="st1" width="143.6" height="143.6"/>
					<path class="st1" d="M327.8,327.8h143.6v113.6c0,16.6-13.4,30-30,30H327.8V327.8z"/>
				</g>
				<g>
					<rect x="184.2" y="184.2" class="st1" width="143.6" height="143.6"/>
				</g>
			</g>
		</g>
	</g>
</mask>
<g class="st2">
	<g>
		<g>
			<rect x="184.2" y="40.7" class="st3" width="143.6" height="143.6"/>
			<path class="st3" d="M70.7,40.7h113.6v143.6H40.7V70.7C40.7,54.1,54.1,40.7,70.7,40.7z"/>
			<path class="st3" d="M327.8,40.7h113.6c16.6,0,30,13.4,30,30v113.6H327.8V40.7z"/>
			<rect x="40.7" y="184.2" class="st3" width="143.6" height="143.6"/>
			<rect x="184.2" y="184.2" class="st3" width="143.6" height="143.6"/>
			<rect x="327.8" y="184.2" class="st3" width="143.6" height="143.6"/>
			<path class="st3" d="M40.7,327.8h143.6v143.6H70.7c-16.6,0-30-13.4-30-30V327.8z"/>
			<rect x="184.2" y="327.8" class="st3" width="143.6" height="143.6"/>
			<path class="st3" d="M327.8,327.8h143.6v113.6c0,16.6-13.4,30-30,30H327.8V327.8z"/>
		</g>
		<g>
			<rect x="184.2" y="184.2" class="st3" width="143.6" height="143.6"/>
		</g>
	</g>
</g>
</svg>
