<?xml version="1.0" encoding="utf-8"?>
<!-- Generator: Adobe Illustrator 28.0.0, SVG Export Plug-In . SVG Version: 6.00 Build 0)  -->
<svg version="1.1" id="Calque_1" xmlns="http://www.w3.org/2000/svg" xmlns:xlink="http://www.w3.org/1999/xlink" x="0px" y="0px"
	 viewBox="0 0 1024 1024" style="enable-background:new 0 0 1024 1024;" xml:space="preserve">
<style type="text/css">
	.st0{fill:#FFFFFF;}
</style>
<path class="st0" d="M810.7,170.7c12.2,0,22.4,4.1,30.5,12.2s12.2,18.3,12.2,30.5c0,12-4.1,22.1-12.3,30.3L572.3,512L841,780.3
	c8.2,8.2,12.3,18.3,12.3,30.3c0,12.2-4.1,22.4-12.2,30.5s-18.3,12.2-30.5,12.2c-12,0-22.1-4.1-30.3-12.3L512,572.3L243.7,841
	c-8.2,8.2-18.3,12.3-30.3,12.3c-12.2,0-22.4-4.1-30.5-12.2s-12.2-18.3-12.2-30.5c0-12,4.1-22.1,12.3-30.3L451.7,512L183,243.7
	c-8.2-8.2-12.3-18.3-12.3-30.3c0-12.2,4.1-22.4,12.2-30.5s18.3-12.2,30.5-12.2c12,0,22.1,4.1,30.3,12.3L512,451.7L780.3,183
	C788.5,174.8,798.7,170.7,810.7,170.7L810.7,170.7z"/>
</svg>
