<?xml version="1.0" encoding="utf-8"?>
<!-- Generator: Adobe Illustrator 28.0.0, SVG Export Plug-In . SVG Version: 6.00 Build 0)  -->
<svg version="1.1" id="Calque_1" xmlns="http://www.w3.org/2000/svg" xmlns:xlink="http://www.w3.org/1999/xlink" x="0px" y="0px"
	 viewBox="0 0 512 512" style="enable-background:new 0 0 512 512;" xml:space="preserve">
<style type="text/css">
	.st0{fill:#FFFFFF;}
</style>
<g>
	<path class="st0" d="M125.6,465.1H82.7c-9,0-16.3-7.3-16.3-16.3V228.1c0-9,7.3-16.3,16.3-16.3h42.8c9,0,16.3,7.3,16.3,16.3v220.7
		C141.8,457.8,134.6,465.1,125.6,465.1z"/>
	<path class="st0" d="M328,465.1h-42.8c-9,0-16.3-7.3-16.3-16.3V228.1c0-9,7.3-16.3,16.3-16.3H328c9,0,16.3,7.3,16.3,16.3v220.7
		C344.3,457.8,337,465.1,328,465.1z"/>
	<path class="st0" d="M226.8,465.1H184c-9,0-16.3-7.3-16.3-16.3V63.1c0-9,7.3-16.3,16.3-16.3h42.8c9,0,16.3,7.3,16.3,16.3v385.7
		C243.1,457.8,235.8,465.1,226.8,465.1z"/>
	<path class="st0" d="M429.3,465.1h-42.8c-9,0-16.3-7.3-16.3-16.3V156.1c0-9,7.3-16.3,16.3-16.3h42.8c9,0,16.3,7.3,16.3,16.3v292.7
		C445.5,457.8,438.3,465.1,429.3,465.1z"/>
</g>
</svg>
